<?xml version="1.0" encoding="utf-8"?>
<!-- Generator: Adobe Illustrator 23.0.2, SVG Export Plug-In . SVG Version: 6.00 Build 0)  -->
<svg version="1.1" xmlns="http://www.w3.org/2000/svg" xmlns:xlink="http://www.w3.org/1999/xlink" x="0px" y="0px"
	 viewBox="0 0 578.831 173.447" style="enable-background:new 0 0 578.831 173.447;" xml:space="preserve">
<style type="text/css">
	.st0{fill:#003B71;}
	.st1{fill:#D7C724;}
	.st2{display:none;}
	.st3{display:inline;fill:#E6E7E8;}
</style>
<g id="Layer_1">
	<g>
		<g>
			<path class="st0" d="M168.23,57.935c7.296,0,13.601,1.669,18.67,3.956l-1.36,13.787c-4.266-1.855-9.705-3.215-15.579-3.215
				c-10.818,0-19.102,5.563-19.102,16.258c0,10.139,7.851,16.444,18.608,16.444c5.997,0,11.189-1.484,16.32-3.894l1.855,14.095
				c-6.244,2.782-11.994,4.39-19.226,4.39c-19.535,0-33.445-12.612-33.445-30.972C134.971,69.496,149.066,57.935,168.23,57.935z"/>
			<path class="st1" d="M197.357,40.131c0-5.378,3.709-9.149,9.088-9.149c5.378,0,9.149,3.709,9.149,9.149
				c0,5.378-3.77,9.088-9.149,9.088C201.066,49.219,197.357,45.51,197.357,40.131z"/>
			<rect x="198.532" y="59.172" class="st0" width="15.887" height="59.347"/>
			<path class="st0" d="M249.783,72.339v24.419c0,6.182,3.462,8.903,8.779,8.903c2.968,0,6.738-0.495,10.077-1.422l1.483,13.167
				c-3.647,1.422-9.52,2.349-14.342,2.349c-13.044,0-21.823-6.739-21.823-20.71V72.339h-10.014V59.172h10.076V40.131h15.394v19.041
				h17.186v13.167H249.783z"/>
			<path class="st0" d="M321.378,59.172h17.619l-28.006,67.445c-4.759,11.375-12.053,17.866-24.79,17.866
				c-4.759,0-8.715-1.298-11.313-2.597l1.979-12.735c2.039,0.866,4.821,1.546,7.481,1.546c6.614,0,11.313-4.637,13.166-12.117
				l-24.541-59.409h17.557l15.516,43.212L321.378,59.172z"/>
			<path class="st0" d="M407.201,89.093c0,17.928-11.932,30.663-28.746,30.663c-8.718,0-15.332-2.968-19.288-7.481v30.971H343.34
				V59.172h15.27l0.308,7.172c3.897-4.946,10.016-8.408,19.536-8.408C395.269,57.935,407.201,71.042,407.201,89.093z
				 M375.241,105.537c9.396,0,16.072-7.109,16.072-16.506c0-9.582-6.614-16.877-16.072-16.877c-9.398,0-16.136,7.419-16.136,16.877
				C359.104,98.428,365.905,105.537,375.241,105.537z"/>
			<path class="st0" d="M413.552,88.722c0-17.989,12.302-30.786,28.622-30.786c9.212,0,15.456,3.524,19.35,8.408l0.308-7.172h15.518
				v59.347h-15.518l-0.308-7.172c-3.894,4.946-10.138,8.408-19.35,8.408C425.853,119.756,413.552,106.712,413.552,88.722z
				 M445.265,72.092c-9.522,0-15.95,7.172-15.95,16.629c0,9.521,6.428,16.94,15.95,16.94c9.458,0,16.196-7.419,16.196-16.94
				C461.462,79.264,454.723,72.092,445.265,72.092z"/>
			<path class="st0" d="M532.477,59.172h17.617l-28.004,67.445c-4.761,11.375-12.056,17.866-24.79,17.866
				c-4.761,0-8.718-1.298-11.313-2.597l1.977-12.735c2.041,0.866,4.823,1.546,7.481,1.546c6.614,0,11.313-4.637,13.168-12.117
				l-24.543-59.409h17.557l15.518,43.212L532.477,59.172z"/>
		</g>
		<g>
			<path class="st1" d="M80.493,110.977l1.324-0.264c14.429-2.8,24.898-15.554,24.898-30.328c0-14.771-10.473-27.525-24.903-30.326
				l-1.319-0.268V33.812l1.871,0.268c11.092,1.547,21.296,7.047,28.73,15.49c7.506,8.525,11.64,19.468,11.64,30.815
				c0,9.476-2.839,18.606-8.21,26.404c-5.134,7.453-12.23,13.227-20.531,16.713l-10.46,16.193l-3.04,4.789V110.977z"/>
			<path class="st0" d="M69.485,126.659c-22.972-3.373-40.279-23.266-40.279-46.274c0-23.015,17.268-42.91,40.165-46.273l2.28-0.247
				v15.991l-1.633,0.247c-14.429,2.974-24.93,15.713-24.93,30.282c0,14.581,10.456,27.319,24.863,30.29l1.7,0.233v16.005
				L69.485,126.659z"/>
			<path class="st0" d="M75.761,100.031c-11.311,0-20.513-8.781-20.513-19.573s9.202-19.573,20.513-19.573
				c11.312,0,20.514,8.781,20.514,19.573S87.072,100.031,75.761,100.031z"/>
		</g>
	</g>
</g>
<g id="Margin_Layer" class="st2">
	<path class="st3" d="M-0.127,1.54v171.555h578.221V1.54H-0.127z M550.094,144.651H28.762V30.429h521.332V144.651z"/>
</g>
</svg>
